<?xml version="1.0" standalone="no"?>
<!DOCTYPE svg PUBLIC "-//W3C//DTD SVG 20010904//EN"
 "http://www.w3.org/TR/2001/REC-SVG-20010904/DTD/svg10.dtd">
<svg version="1.0" xmlns="http://www.w3.org/2000/svg"
 width="512.000000pt" height="512.000000pt" viewBox="0 0 512.000000 512.000000"
 preserveAspectRatio="xMidYMid meet">

<g transform="translate(0.000000,512.000000) scale(0.100000,-0.100000)"
fill="#000000" stroke="none">
<path fill="#000000"  d="M1902 5109 c-213 -36 -368 -164 -430 -357 l-19 -57 -84 -6 c-108 -8
-156 -22 -253 -72 -165 -85 -288 -240 -326 -409 l-13 -56 -60 39 c-180 116
-410 93 -568 -58 -47 -45 -71 -79 -105 -150 l-44 -91 0 -1475 c0 -1605 -2
-1558 56 -1719 53 -145 136 -270 259 -386 165 -157 358 -252 593 -293 221 -37
13 -94 2201 601 1074 342 1961 626 1971 632 10 7 23 23 29 35 15 34 15 2906 0
2935 -27 51 36 53 -1563 -48 -819 -51 -1493 -91 -1498 -88 -4 3 -8 21 -8 41 0
47 -26 135 -62 208 -63 128 -162 227 -288 287 -78 37 -77 34 -29 135 56 117
194 192 355 193 51 0 66 4 88 25 26 24 34 63 20 100 -16 41 -100 54 -222 34z
m-459 -678 c6 -91 24 -144 52 -155 36 -13 76 -6 102 20 24 24 25 29 19 100 -4
41 -4 74 -1 74 15 0 92 -57 129 -95 89 -91 132 -213 124 -356 -12 -238 -216
-428 -458 -429 -137 0 -251 50 -345 152 -109 118 -149 272 -110 423 23 86 53
141 111 204 89 96 202 149 320 150 l51 1 6 -89z m-857 -361 c61 -26 122 -86
155 -152 16 -33 37 -62 45 -65 9 -3 26 -30 40 -61 36 -81 107 -176 174 -230
207 -167 477 -193 715 -69 125 66 261 231 301 367 10 33 20 50 31 50 8 0 520
32 1137 70 616 39 1129 69 1140 68 10 -2 -408 -142 -930 -311 -837 -272 -952
-312 -976 -338 l-28 -29 0 -241 c0 -291 -5 -309 -91 -309 -18 0 -39 10 -54 25
-25 24 -25 26 -25 212 0 202 -5 226 -51 252 -31 17 -71 9 -99 -21 -20 -22 -20
-31 -20 -1105 0 -1187 3 -1134 -58 -1150 -41 -11 -65 -5 -89 23 l-23 25 0
1024 c0 642 -4 1033 -10 1049 -5 15 -25 34 -44 43 l-35 16 -343 -111 c-372
-122 -379 -123 -519 -96 -178 34 -343 119 -477 247 -156 151 -243 315 -272
515 -9 64 -8 78 11 128 61 162 239 241 395 174z m4362 -431 l-3 -421 -602
-197 c-457 -148 -610 -202 -632 -222 -60 -53 -49 -126 22 -143 30 -8 47 -5 90
12 28 12 293 100 587 196 l535 174 3 -161 c1 -88 -1 -164 -5 -168 -6 -5 -2571
-845 -2700 -884 l-23 -6 0 165 0 165 433 141 c237 78 497 162 575 188 79 26
154 57 168 69 52 48 38 120 -27 137 -30 7 -101 -13 -579 -169 -300 -98 -551
-180 -557 -182 -10 -4 -13 32 -13 159 l0 164 65 -4 c84 -6 144 16 200 73 67
66 75 104 75 349 l0 211 1183 386 c650 213 1188 387 1195 388 10 1 12 -86 10
-420z m-4668 -454 c168 -185 389 -307 634 -350 49 -8 93 -15 97 -15 5 0 9
-579 9 -1320 l0 -1320 -29 0 c-16 0 -61 7 -99 15 -332 69 -599 306 -694 615
l-23 75 -2 1215 -2 1215 27 -35 c15 -19 52 -62 82 -95z m1430 -603 l0 -418
-248 -82 c-137 -45 -254 -82 -260 -82 -9 0 -12 104 -12 419 l0 420 243 79
c133 44 250 80 260 81 16 1 17 -25 17 -417z m3238 -387 c-6 -4 -2714 -885
-2721 -885 -4 0 -7 74 -7 164 l0 163 268 88 c147 48 760 248 1362 444 l1095
357 3 -164 c1 -91 1 -166 0 -167z m2 -498 l0 -313 -1867 -593 c-1028 -326
-1872 -594 -1878 -595 -6 -1 -11 105 -13 296 l-2 297 276 91 277 90 46 -43
c56 -52 106 -71 183 -70 123 2 224 95 243 225 l7 44 1351 441 c744 243 1358
442 1365 442 9 1 12 -68 12 -312z m-3240 118 l0 -164 -247 -81 c-136 -44 -253
-80 -260 -80 -11 0 -13 34 -11 162 l3 163 245 81 c135 45 251 83 258 83 9 1
12 -38 12 -164z m-2 -511 l-3 -167 -253 -82 c-174 -57 -255 -79 -258 -71 -2 7
-3 81 -2 166 l3 154 250 82 c138 45 253 83 258 83 4 1 6 -74 5 -165z"/>
</g>
</svg>
